<?xml version="1.0" standalone="no"?>
<!DOCTYPE svg PUBLIC "-//W3C//DTD SVG 20010904//EN"
 "http://www.w3.org/TR/2001/REC-SVG-20010904/DTD/svg10.dtd">
<svg version="1.0" xmlns="http://www.w3.org/2000/svg"
 width="500.000000pt" height="500.000000pt" viewBox="0 0 500.000000 500.000000"
 preserveAspectRatio="xMidYMid meet">
<metadata>
Created by potrace 1.11, written by Peter Selinger 2001-2013
</metadata>
<g transform="translate(0.000000,500.000000) scale(0.100000,-0.100000)"
fill="#000000" stroke="none">
<path d="M2193 4984 c-335 -40 -697 -166 -987 -342 -1002 -610 -1446 -1815
-1081 -2928 429 -1309 1846 -2021 3161 -1589 1309 429 2021 1846 1589 3161
-301 918 -1120 1586 -2081 1699 -157 18 -447 18 -601 -1z m1357 -1314 l0 -280
-680 0 -680 0 0 -255 0 -255 630 0 630 0 0 -280 0 -280 -630 0 -630 0 0 -360
0 -360 680 0 680 0 0 -280 0 -280 -1050 0 -1050 0 0 1455 0 1455 1050 0 1050
0 0 -280z"/>
</g>
</svg>
