<svg xmlns="http://www.w3.org/2000/svg"><defs><path d="M3 0v1h4v5H3v1h5V0H3zM2 2L0 3.5 2 5V4h4V3H2V2z" id="account-logout"/><path d="M4 0C1.79 0 0 1.79 0 4s1.79 4 4 4 4-1.79 4-4-1.79-4-4-4zm0 1c.333 0 .637.086.938.188-.214.197-.45.383-.406.563.04.18.688.13.688.5 0 .27-.425.346-.125.656.35.35-.636.978-.656 1.438-.03.83.841.969 1.531.969.424 0 .503.195.469.438a3.003 3.003 0 01-2.438 1.25c-.378 0-.729-.09-1.063-.219.224-.442-.313-1.344-.781-1.625-.226-.226-.689-.114-.969-.219-.092-.271-.178-.545-.188-.844.031-.05.081-.094.156-.094.19 0 .454.374.594.344.18-.04-.742-1.313-.313-1.563.2-.12.609.394.469-.156-.12-.51.366-.276.656-.406.26-.11.455-.414.125-.594l-.219-.188C2.918 1.168 3.44 1 3.999 1zm2.313 1.094c.184.222.323.481.438.75l-.188.219c-.29.27-.327-.212-.438-.313-.13-.11-.638.025-.688-.125-.077-.181.499-.418.875-.531z" id="globe"/><path d="M3.5 1C1.57 1 0 2.57 0 4.5a2.5 2.5 0 015 0V5H4l2 2 2-2H7v-.5C7 2.57 5.43 1 3.5 1z" id="action-redo"/><path d="M4.5 1C2.57 1 1 2.57 1 4.5V5H0l2 2 2-2H3v-.5a2.5 2.5 0 015 0C8 2.57 6.43 1 4.5 1z" id="action-undo"/><path d="M0 0v1h8V0H0zm1 2v1h6V2H1zM0 4v1h8V4H0zm1 2v1h6V6H1z" id="align-center"/><path d="M0 0v1h8V0H0zm0 2v1h6V2H0zm0 2v1h8V4H0zm0 2v1h6V6H0z" id="align-left"/><path d="M0 0v1h8V0H0zm2 2v1h6V2H2zM0 4v1h8V4H0zm2 2v1h6V6H2z" id="align-right"/><path d="M4 0c-.69 0-1.336.19-1.906.5l3.219 2.344.719-2.25A3.895 3.895 0 004.001 0zM1.25 1.125C.49 1.855 0 2.86 0 4c0 .25.022.489.063.719L3.157 2.5 1.251 1.125zm5.625.125L5.656 5h2.219a3.96 3.96 0 00-1-3.75zM2.156 4.438L.406 5.719c.55 1.13 1.595 1.989 2.875 2.219l-1.125-3.5zm1.563 1.563l.625 1.969c1.33-.11 2.454-.879 3.094-1.969H3.719z" id="aperture"/><path d="M3 0v5H1l2.531 3L6 5H4V0H3z" id="arrow-bottom"/><path d="M4 0C1.79 0 0 1.79 0 4s1.79 4 4 4 4-1.79 4-4-1.79-4-4-4zM3 1h2v3h2L4 7 1 4h2V1z" id="arrow-circle-bottom"/><path d="M4 0C1.79 0 0 1.79 0 4s1.79 4 4 4 4-1.79 4-4-1.79-4-4-4zm0 1v2h3v2H4v2L1 4l3-3z" id="arrow-circle-left"/><path d="M4 0C1.79 0 0 1.79 0 4s1.79 4 4 4 4-1.79 4-4-1.79-4-4-4zm0 1l3 3-3 3V5H1V3h3V1z" id="arrow-circle-right"/><path d="M4 0C1.79 0 0 1.79 0 4s1.79 4 4 4 4-1.79 4-4-1.79-4-4-4zm0 1l3 3H5v3H3V4H1l3-3z" id="arrow-circle-top"/><path d="M3 1L0 3.531 3 6V4h5V3H3V1z" id="arrow-left"/><path d="M5 1v2H0v1h5v2l3-2.531L5 1z" id="arrow-right"/><path d="M3 0v5H1l3.031 3L7 5H5V0H3z" id="arrow-thick-bottom"/><path d="M3 1L0 4.031 3 7V5h5V3H3V1z" id="arrow-thick-left"/><path d="M5 1v2H0v2h5v2l3-3.031L5 1z" id="arrow-thick-right"/><path d="M3.969 0L1 3h2v5h2V3h2L3.969 0z" id="arrow-thick-top"/><path d="M3.469 0L1 3h2v5h1V3h2L3.469 0z" id="arrow-top"/><path d="M4 0v8h1V0H4zM2 1v6h1V1H2zm4 1v4h1V2H6zM0 3v2h1V3H0z" id="audio-spectrum"/><path d="M1.188 1A4.008 4.008 0 000 3.844a3.94 3.94 0 001.188 2.813l.688-.719c-.546-.538-.875-1.269-.875-2.094s.329-1.587.875-2.125L1.188 1zm5.625 0l-.688.719C6.677 2.271 7 3.008 7 3.844c0 .836-.327 1.554-.875 2.094l.688.719a3.925 3.925 0 001.188-2.813A4.027 4.027 0 006.813 1zM2.594 2.406A2.063 2.063 0 002 3.844c0 .548.232 1.045.594 1.406l.688-.719a.956.956 0 01-.281-.688c0-.272.103-.54.281-.719l-.688-.719zm2.813 0l-.688.719c.183.183.281.434.281.719s-.099.505-.281.688l.688.719c.357-.357.594-.851.594-1.406 0-.555-.236-1.08-.594-1.438z" id="audio"/><path d="M4 0a2 2 0 10-.001 3.999A2 2 0 004 0zM3 4.813v3.188l1-1 1 1V4.813c-.31.11-.65.188-1 .188s-.69-.077-1-.188z" id="badge"/><path d="M4 0C1.797 0 0 1.797 0 4c0 2.203 1.797 4 4 4 2.203 0 4-1.797 4-4 0-2.203-1.797-4-4-4zm0 1c.655 0 1.258.209 1.75.563L1.562 5.751a2.99 2.99 0 01-.563-1.75c0-1.663 1.337-3 3-3zm2.438 1.25A2.99 2.99 0 017.001 4c0 1.663-1.337 3-3 3a2.983 2.983 0 01-1.75-.563l4.188-4.188z" id="ban"/><path d="M0 0v7h8V6H1V0H0zm5 0v5h2V0H5zM2 2v3h2V2H2z" id="bar-chart"/><path d="M3.969 0a.518.518 0 00-.344.188L1.281 3.001H0v1h1v3.656c0 .18.164.344.344.344h5.313c.18 0 .344-.164.344-.344V4.001h1v-1H6.72A474.127 474.127 0 004.314.126.453.453 0 003.97.001zM4 1.281L5.438 3H2.563l1.438-1.719zM2.5 5c.28 0 .5.22.5.5v1c0 .28-.22.5-.5.5S2 6.78 2 6.5v-1c0-.28.22-.5.5-.5zm3 0c.28 0 .5.22.5.5v1c0 .28-.22.5-.5.5S5 6.78 5 6.5v-1c0-.28.22-.5.5-.5z" id="basket"/><path d="M.094 1C.034 1 0 1.034 0 1.094v5.813c0 .06.034.094.094.094h6.813c.06 0 .094-.034.094-.094V5.001h1v-2h-1V1.095c0-.06-.034-.094-.094-.094H.094zM1 2h5v4H1V2z" id="battery-empty"/><path d="M.094 1C.034 1 0 1.034 0 1.094v5.813c0 .06.034.094.094.094h6.813c.06 0 .094-.034.094-.094V5.001h1v-2h-1V1.095c0-.06-.034-.094-.094-.094H.094z" id="battery-full"/><path d="M1.344 0A.502.502 0 001.5 1H2v1.406C1.912 2.578.806 4.719.344 5.5.191 5.768 0 6.112 0 6.563c0 .383.139.764.406 1.031.26.26.643.406 1.031.406h5.125c.383 0 .764-.139 1.031-.406.26-.26.406-.643.406-1.031 0-.452-.194-.801-.344-1.063-.463-.78-1.568-2.922-1.656-3.094V1h.5a.5.5 0 100-1h-5a.5.5 0 00-.094 0 .502.502 0 00-.063 0zM3 1h2v1.625l.063.094S5.715 3.952 6.282 5H1.719a347.837 347.837 0 001.219-2.281l.063-.094V1z" id="beaker"/><path d="M4 0C2.9 0 2 .9 2 2 2 3.04 1.476 3.976.656 4.656.236 4.996 0 5.48 0 6h8c0-.52-.236-1.004-.656-1.344C6.524 3.976 6 3.04 6 2c0-1.1-.9-2-2-2zM3 7c0 .55.45 1 1 1s1-.45 1-1H3z" id="bell"/><path d="M2.5 0v2.5l-.75-.75L1 2.5 2.5 4 1 5.5l.75.75.75-.75V8H3l3.5-2.5-2.25-1.531L6.5 2.5 3 0h-.5zm1 1.5l1.5 1-1.5 1v-2zm0 3l1.5 1-1.5 1v-2z" id="bluetooth"/><path d="M0 0v1c.55 0 1 .45 1 1v4c0 .55-.45 1-1 1v1h5.5A2.5 2.5 0 008 5.5c0-1-.588-1.85-1.438-2.25C6.832 2.91 7 2.47 7 2c0-1.1-.9-2-2-2H0zm3 1h1c.55 0 1 .45 1 1s-.45 1-1 1H3V1zm0 3h1.5C5.33 4 6 4.67 6 5.5S5.33 7 4.5 7H3V4z" id="bold"/><path d="M4 0L1 5h2v3l3-5H4V0z" id="bolt"/><path d="M1 0L.812.031a1.01 1.01 0 00-.781.781L0 1v5.5C0 7.33.67 8 1.5 8H7V7H1.5c-.28 0-.5-.22-.5-.5s.22-.5.5-.5H7V.5c0-.28-.22-.5-.5-.5H6v3L5 2 4 3V0H1z" id="book"/><path d="M2 0v8l2-2 2 2V0H2z" id="bookmark"/><path d="M0 0v1h8V0H0zm0 2v5.906C0 7.966.034 8 .094 8h7.813c.06 0 .094-.034.094-.094V2H5.032v1.031H3.001V2h-3z" id="box"/><path d="M3 0c-.554 0-1 .458-1 1v1H.094C.034 2 0 2.034 0 2.094V4.5c0 .28.22.5.5.5h7c.28 0 .5-.22.5-.5V2.094C8 2.034 7.966 2 7.906 2H6V1c0-.542-.446-1-1-1H3zm0 1h2v1H3V1zM0 5.906v2C0 7.966.034 8 .094 8h7.813c.06 0 .094-.034.094-.094v-2c-.16.05-.32.094-.5.094h-7c-.18 0-.34-.044-.5-.094z" id="briefcase"/><path d="M4 0c-.619 0-1.159.262-1.5.688-.341.426-.5.986-.5 1.563 0 .692.165 1.245.25 1.75H1v1h1.219c-.112.448-.37.964-1.063 1.656L1 6.782v1.219h6v-1H2.094c.641-.729.982-1.397 1.125-2H5v-1H3.281C3.203 3.318 3 2.759 3 2.251c0-.394.115-.731.281-.938C3.447 1.106 3.649 1 4 1c.394 0 .609.109.75.25.141.141.25.356.25.75h1C6 1.424 5.835.898 5.469.531 5.103.165 4.576 0 4 0z" id="british-pound"/><path d="M.344 0A.5.5 0 000 .5v7a.5.5 0 00.5.5h7a.5.5 0 00.5-.5v-7a.5.5 0 00-.5-.5h-7a.5.5 0 00-.094 0 .5.5 0 00-.063 0zM1.5 1c.28 0 .5.22.5.5s-.22.5-.5.5-.5-.22-.5-.5.22-.5.5-.5zm2 0h3c.28 0 .5.22.5.5s-.22.5-.5.5h-3c-.28 0-.5-.22-.5-.5s.22-.5.5-.5zM1 3h6v4H1V3z" id="browser"/><path d="M7.438.031l-.063.031-3.75 2.656-.125.156-.125.25a2.295 2.295 0 011.5 1.5l.25-.125a.378.378 0 00.156-.125L7.937.624c.03-.04.04-.116 0-.156L7.531.062 7.437.031zM2.657 4c-.73 0-1.313.614-1.313 1.344C1.344 6.334.8 7.165 0 7.625a2.64 2.64 0 004-2.281C4 4.614 3.396 4 2.656 4z" id="brush"/><path d="M3.5 0C2.31 0 1.522 1.69 2.312 2.5l-.281.219-1.313-.656A.5.5 0 00.374 2a.5.5 0 00-.094.938l1.156.563c-.09.156-.186.328-.25.5H.498a.5.5 0 00-.094 0 .502.502 0 10.094 1h.5c0 .227.023.445.063.656l-.781.406a.5.5 0 10.438.875l.656-.344c.245.46.59.844 1 1.094.35-.19.625-.439.625-.719V5.531a.5.5 0 000-.094v-.813a.5.5 0 000-.219.51.51 0 01.5-.406c.28 0 .5.22.5.5v.875a.5.5 0 000 .094v.063a.5.5 0 000 .094v1.344c0 .27.275.497.625.688a2.71 2.71 0 001-1.063l.656.344a.5.5 0 10.438-.875l-.781-.406c.04-.211.063-.429.063-.656h.5a.5.5 0 100-1h-.688a3.431 3.431 0 00-.25-.5l1.156-.563A.5.5 0 006.405 2a.5.5 0 00-.125.063l-1.313.656-.281-.219c.78-.83.003-2.5-1.188-2.5z" id="bug"/><path d="M6.094 0L6 .031V6h.907c.06 0 .094-.034.094-.094V.093c0-.06-.034-.094-.094-.094h-.813zM5 .5L2.094 1.969 1.906 2H.093c-.06 0-.094.034-.094.094v1.813c0 .06.034.094.094.094h.906L2.03 6.72c.11.25.406.36.656.25.25-.11.36-.406.25-.656l-.719-1.781c.033-.136.136-.25.281-.25v-.031l2.5 1.25v-5z" id="bullhorn"/><path d="M.094 0C.034 0 0 .034 0 .094v7.813c0 .06.034.094.094.094h6.813c.06 0 .094-.034.094-.094V.094c0-.06-.034-.094-.094-.094H.094zM1 1h5v2H1V1zm0 3h1v1H1V4zm2 0h1v1H3V4zm2 0h1v3H5V4zM1 6h1v1H1V6zm2 0h1v1H3V6z" id="calculator"/><path d="M0 0v2h7V0H0zm0 3v4.906C0 7.966.034 8 .094 8h6.813c.06 0 .094-.034.094-.094V3h-7zm1 1h1v1H1V4zm2 0h1v1H3V4zm2 0h1v1H5V4zM1 6h1v1H1V6zm2 0h1v1H3V6z" id="calendar"/><path d="M4.094 0c-.06 0-.105.044-.125.094l-.938 1.813c-.02.05-.065.094-.125.094H1.5c-.83 0-1.5.67-1.5 1.5v4.406c0 .06.034.094.094.094h7.813c.06 0 .094-.034.094-.094V2.094c0-.06-.034-.094-.094-.094h-.813c-.06 0-.105-.044-.125-.094L6.031.093c-.02-.05-.065-.094-.125-.094H4.093zM1.5 3c.28 0 .5.22.5.5s-.22.5-.5.5-.5-.22-.5-.5.22-.5.5-.5zM5 3c1.1 0 2 .9 2 2s-.9 2-2 2-2-.9-2-2 .9-2 2-2zm0 1c-.55 0-1 .45-1 1s.45 1 1 1 1-.45 1-1-.45-1-1-1z" id="camera-slr"/><path d="M0 2l4 4 4-4H0z" id="caret-bottom"/><path d="M6 0L2 4l4 4V0z" id="caret-left"/><path d="M2 0v8l4-4-4-4z" id="caret-right"/><path d="M4 2L0 6h8L4 2z" id="caret-top"/><path d="M.344 0A.502.502 0 00.5 1H2l.094.25L2.5 2.5l.406 1.25c.04.13.204.25.344.25h3.5c.14 0 .304-.12.344-.25l.813-2.531c.04-.12-.016-.219-.156-.219H3.313L2.938.281A.5.5 0 002.5 0h-2a.5.5 0 00-.094 0 .502.502 0 00-.063 0zM3.5 5a.5.5 0 100 1 .5.5 0 000-1zm3 0a.5.5 0 100 1 .5.5 0 000-1z" transform="translate(0 1)" id="cart"/><path d="M0 0v5l1-1h1V1h3V0H0zm3 2v4h4l1 1V2H3z" id="chat"/><path d="M6.406 1l-.719.688-2.781 2.781-.781-.781L1.406 3 0 4.406l.688.719 1.5 1.5.719.688.719-.688 3.5-3.5.688-.719L6.408 1z" id="check"/><path d="M1.5 1L0 2.5l4 4 4-4L6.5 1 4 3.5 1.5 1z" id="chevron-bottom"/><path d="M5 0L1 4l4 4 1.5-1.5L4 4l2.5-2.5L5 0z" id="chevron-left"/><path d="M2.5 0L1 1.5 3.5 4 1 6.5 2.5 8l4-4-4-4z" id="chevron-right"/><path d="M4 1L0 5l1.5 1.5L4 4l2.5 2.5L8 5 4 1z" id="chevron-top"/><path d="M4 0C1.79 0 0 1.79 0 4s1.79 4 4 4 4-1.79 4-4-1.79-4-4-4zm2 1.781l.719.719L3.5 5.719 1.781 4l.719-.719 1 1 2.5-2.5z" id="circle-check"/><path d="M4 0C1.79 0 0 1.79 0 4s1.79 4 4 4 4-1.79 4-4-1.79-4-4-4zM2.5 1.781l1.5 1.5 1.5-1.5.719.719-1.5 1.5 1.5 1.5-.719.719-1.5-1.5-1.5 1.5-.719-.719 1.5-1.5-1.5-1.5.719-.719z" id="circle-x"/><path d="M3.5 0c-.28 0-.5.22-.5.5V1h-.75c-.14 0-.25.11-.25.25V2h3v-.75C5 1.11 4.89 1 4.75 1H4V.5c0-.28-.22-.5-.5-.5zM.25 1C.11 1 0 1.11 0 1.25v6.5c0 .14.11.25.25.25h6.5c.14 0 .25-.11.25-.25v-6.5C7 1.11 6.89 1 6.75 1H6v2H1V1H.25z" id="clipboard"/><path d="M4 0C1.797 0 0 1.797 0 4c0 2.203 1.797 4 4 4 2.203 0 4-1.797 4-4 0-2.203-1.797-4-4-4zm0 1c1.663 0 3 1.337 3 3S5.663 7 4 7 1 5.663 1 4s1.337-3 3-3zm-.5 1v2.219l.156.125.5.5.344.375.719-.719-.375-.344-.344-.344V1.999h-1z" id="clock"/><path d="M4.5 0C3.29 0 2.23.86 2 2 .9 2 0 2.9 0 4c0 .37.111.7.281 1H3v-.5C3 3.67 3.67 3 4.5 3S6 3.67 6 4.5V5h1.906c.05-.16.094-.32.094-.5 0-.65-.42-1.29-1-1.5v-.5A2.5 2.5 0 004.5 0zm-.156 4A.5.5 0 004 4.5V6H2.5l2 2 2-2H5V4.5a.5.5 0 00-.594-.5.5.5 0 00-.063 0z" id="cloud-download"/><path d="M4.5 0C3.29 0 2.23.86 2 2 .9 2 0 2.9 0 4c0 .37.111.7.281 1H2.5l2-2 2 2h1.406c.05-.16.094-.32.094-.5 0-.65-.42-1.29-1-1.5v-.5A2.5 2.5 0 004.5 0zm0 4.5L2 7h2v.5a.5.5 0 101 0V7h2L4.5 4.5z" id="cloud-upload"/><path d="M4.5 1C3.29 1 2.23 1.86 2 3 .9 3 0 3.9 0 5s.9 2 2 2h4.5C7.33 7 8 6.33 8 5.5c0-.65-.42-1.29-1-1.5v-.5A2.5 2.5 0 004.5 1z" id="cloud"/><path d="M2.5 0A2.5 2.5 0 000 2.5c0 .39.09.743.25 1.063.3-.21.63-.379 1-.469C1.8 1.844 3.07 1.01 4.5 1c-.46-.6-1.18-1-2-1zm2 2C3.29 2 2.23 2.86 2 4 .9 4 0 4.9 0 6s.9 2 2 2h4.5C7.33 8 8 7.33 8 6.5c0-.65-.42-1.29-1-1.5v-.5A2.5 2.5 0 004.5 2z" id="cloudy"/><path d="M5 1L2 7h1l3-6H5zM1 2L0 4l1 2h1L1 4l1-2H1zm5 0l1 2-1 2h1l1-2-1-2H6z" id="code"/><path d="M3.5 0L3 1.188l-.281.125-1.188-.5-.719.719.5 1.188-.125.281-1.188.5v1l1.188.5.125.313-.5 1.156.719.719 1.188-.5.281.125.5 1.188h1L5 6.814l.281-.125 1.188.5.719-.719-.5-1.188.125-.281 1.188-.5v-1l-1.188-.5-.125-.281.469-1.188-.688-.719-1.188.5L5 1.188 4.5 0h-1zM4 2.5c.83 0 1.5.67 1.5 1.5S4.83 5.5 4 5.5 2.5 4.83 2.5 4 3.17 2.5 4 2.5z" id="cog"/><path d="M0 0v2h8V0H0zm2 3l2 2 2-2H2zM0 7v1h8V7H0z" id="collapse-down"/><path d="M0 0v8h1V0H0zm6 0v8h2V0H6zM5 2L3 4l2 2V2z" id="collapse-left"/><path d="M0 0v8h2V0H0zm7 0v8h1V0H7zM3 2v4l2-2-2-2z" id="collapse-right"/><path d="M0 0v1h8V0H0zm4 3L2 5h4L4 3zM0 6v2h8V6H0z" id="collapse-up"/><path d="M1.5 0C.67 0 0 .67 0 1.5S.67 3 1.5 3H2v1h-.5C.67 4 0 4.67 0 5.5S.67 7 1.5 7 3 6.33 3 5.5V5h1v.5C4 6.33 4.67 7 5.5 7S7 6.33 7 5.5 6.33 4 5.5 4H5V3h.5C6.33 3 7 2.33 7 1.5S6.33 0 5.5 0 4 .67 4 1.5V2H3v-.5C3 .67 2.33 0 1.5 0zm0 1c.28 0 .5.22.5.5V2h-.5c-.28 0-.5-.22-.5-.5s.22-.5.5-.5zm4 0c.28 0 .5.22.5.5s-.22.5-.5.5H5v-.5c0-.28.22-.5.5-.5zM3 3h1v1H3V3zM1.5 5H2v.5c0 .28-.22.5-.5.5S1 5.78 1 5.5s.22-.5.5-.5zM5 5h.5c.28 0 .5.22.5.5s-.22.5-.5.5-.5-.22-.5-.5V5z" id="command"/><path d="M.094 0C.034 0 0 .034 0 .094v5.813c0 .06.034.094.094.094H6l2 2V.095c0-.06-.034-.094-.094-.094H.093z" id="comment-square"/><path d="M4 0C1.797 0 0 1.797 0 4c0 2.203 1.797 4 4 4 2.203 0 4-1.797 4-4 0-2.203-1.797-4-4-4zm0 1c1.663 0 3 1.337 3 3S5.663 7 4 7 1 5.663 1 4s1.337-3 3-3zm2 1L3 3 2 6l3-1 1-3zM4 3.5c.28 0 .5.22.5.5s-.22.5-.5.5-.5-.22-.5-.5.22-.5.5-.5z" id="compass"/><path d="M4 0C1.797 0 0 1.797 0 4c0 2.203 1.797 4 4 4 2.203 0 4-1.797 4-4 0-2.203-1.797-4-4-4zm0 1c1.663 0 3 1.337 3 3S5.663 7 4 7V1z" id="contrast"/><path d="M0 0v1h8V0H0zm0 2v1h5V2H0zm0 3v1h8V5H0zm0 2v1h6V7H0zm7.5 0a.5.5 0 100 1 .5.5 0 000-1z" id="copywriting"/><path d="M.25 1C.11 1 0 1.11 0 1.25V2h8v-.75C8 1.11 7.89 1 7.75 1H.25zM0 3v3.75c0 .14.11.25.25.25h7.5c.14 0 .25-.11.25-.25V3H0zm1 2h1v1H1V5zm2 0h1v1H3V5z" id="credit-card"/><path d="M1 0v1H0v1h1v5h5v1h1V7h1V6H7V1.5l1-1-.5-.5-1 1H2V0H1zm1 2h3.5L2 5.5V2zm4 .5V6H2.5L6 2.5z" id="crop"/><path d="M4 0C1.797 0 0 1.797 0 4c0 2.203 1.797 4 4 4 2.203 0 4-1.797 4-4 0-2.203-1.797-4-4-4zm0 1c1.663 0 3 1.337 3 3S5.663 7 4 7 1 5.663 1 4s1.337-3 3-3zm0 1a.5.5 0 100 1 .5.5 0 000-1zM2.344 3a.5.5 0 00-.188.844l.906.906-.063.25a1 1 0 101-1l-.25.063-.906-.906a.5.5 0 00-.438-.156.5.5 0 00-.063 0zM5.5 3a.5.5 0 100 1 .5.5 0 000-1z" id="dashboard"/><path d="M3 0v3H1l3 3 3-3H5V0H3zM0 7v1h8V7H0z" id="data-transfer-download"/><path d="M0 0v1h8V0H0zm4 2L1 5h2v3h2V5h2L4 2z" id="data-transfer-upload"/><path d="M2 1L0 4l2 3h6V1H2zm1.5.781l1.5 1.5 1.5-1.5.719.719-1.5 1.5 1.5 1.5-.719.719-1.5-1.5-1.5 1.5-.719-.719 1.5-1.5-1.5-1.5.719-.719z" id="delete"/><path d="M4 1a4.01 4.01 0 00-4 4h1c0-1.659 1.341-3 3-3s3 1.341 3 3h1c0-2.201-1.799-4-4-4zm-.594 2.094A1.984 1.984 0 002 5c0 1.1.9 2 2 2s2-.9 2-2c0-.9-.586-1.656-1.406-1.906L4 3.969l-.594-.875z" id="dial"/><path d="M0 0v8h7V4H3V0H0zm4 0v3h3L4 0zM1 2h1v1H1V2zm0 2h1v1H1V4zm0 2h4v1H1V6z" id="document"/><path d="M3 0v1h-.75C1.564 1 1 1.564 1 2.25v.5c0 .678.437 1.242 1.094 1.406l2.563.656c.143.036.344.296.344.438v.5c0 .134-.116.25-.25.25h-2.5a.49.49 0 01-.25-.063v-.938h-1v1c0 .342.203.627.438.781.234.155.518.219.813.219h.75v1h1v-1h.75c.686 0 1.25-.564 1.25-1.25v-.5c0-.678-.437-1.242-1.094-1.406l-2.563-.656c-.143-.036-.344-.296-.344-.438v-.5c0-.134.116-.25.25-.25h2.5a.49.49 0 01.25.063V3h1V2a.954.954 0 00-.438-.781A1.458 1.458 0 004.75 1H4V0H3z" id="dollar"/><path d="M0 1v6l3-3V1H0zm5 0v6l3-3V1H5z" id="double-quote-sans-left"/><path d="M3 1L0 4v3h3V1zm5 0L5 4v3h3V1z" id="double-quote-sans-right"/><path d="M3 1C1.349 1 0 2.349 0 4v3h3V4H1c0-1.109.891-2 2-2V1zm5 0C6.349 1 5 2.349 5 4v3h3V4H6c0-1.109.891-2 2-2V1z" id="double-quote-serif-left"/><path d="M0 1v3h2c0 1.109-.891 2-2 2v1c1.651 0 3-1.349 3-3V1H0zm5 0v3h2c0 1.109-.891 2-2 2v1c1.651 0 3-1.349 3-3V1H5z" id="double-quote-serif-right"/><path d="M4 0l-.344.344C3.546.454 1 3.029 1 5.219c0 1.65 1.35 3 3 3s3-1.35 3-3C7 3.029 4.454.454 4.344.344L4 0zM2.5 4.719c.28 0 .5.22.5.5 0 .55.45 1 1 1 .28 0 .5.22.5.5s-.22.5-.5.5c-1.1 0-2-.9-2-2 0-.28.22-.5.5-.5z" id="droplet"/><path d="M4 0L0 5h8L4 0zM0 6v2h8V6H0z" id="eject"/><path d="M4 0L1 3h6L4 0zM1 5l3 3 3-3H1z" id="elevator"/><path d="M0 3v2h2V3H0zm3 0v2h2V3H3zm3 0v2h2V3H6z" id="ellipses"/><path d="M0 1v1l4 2 4-2V1H0zm0 2v4h8V3L4 5 0 3z" id="envelope-closed"/><path d="M4 0L0 2v6h8V2L4 0zm0 1.125l3 1.5V4.5L4 6 1 4.5V2.625l3-1.5zM2 3v1l2 1 2-1V3H2z" id="envelope-open"/><path d="M5 0C3.142 0 1.602 1.278 1.156 3H-.75L-1 4h2c0 .345.073.68.156 1H-.813l-.188 1h2.563C2.258 7.185 3.531 8 5 8c.734 0 1.407-.215 2-.563V6.218a2.972 2.972 0 01-2 .781 2.975 2.975 0 01-2.219-1H5l.156-1H2.187a2.935 2.935 0 01-.188-1h3.344l.156-1H2.186a2.99 2.99 0 014.563-1.437L6.905.499a3.937 3.937 0 00-1.906-.5z" id="euro"/><path d="M0 0v1h7V0H0zm0 2v1h5V2H0zm0 2v1h8V4H0zm0 2v1h1V6H0zm2 0v1h1V6H2zm2 0v1h1V6H4z" id="excerpt"/><path d="M0 0v1h8V0H0zm2 2l2 2 2-2H2zM0 6v2h8V6H0z" id="expand-down"/><path d="M0 0v8h1V0H0zm6 0v8h2V0H6zM2 2v4l2-2-2-2z" id="expand-left"/><path d="M0 0v8h2V0H0zm7 0v8h1V0H7zM6 2L4 4l2 2V2z" id="expand-right"/><path d="M0 0v2h8V0H0zm4 4L2 6h4L4 4zM0 7v1h8V7H0z" id="expand-up"/><path d="M0 0v8h8V6H7v1H1V1h1V0H0zm4 0l1.5 1.5L3 4l1 1 2.5-2.5L8 4V0H4z" id="external-link"/><path d="M4.031 1C1.501 1 0 4 0 4s1.501 3 4.031 3C6.501 7 8 4 8 4S6.501 1 4.031 1zM4 2c1.1 0 2 .9 2 2s-.9 2-2 2-2-.9-2-2 .9-2 2-2zm0 1c-.55 0-1 .45-1 1s.45 1 1 1 1-.45 1-1c0-.1-.032-.191-.063-.281A.489.489 0 014.499 4c-.28 0-.5-.22-.5-.5 0-.2.121-.357.281-.438-.09-.03-.181-.063-.281-.063z" id="eye"/><path d="M3.313 0a.5.5 0 00-.188.844l.625.625L.156 5.125 0 5.281V8h2.719l.125-.156L6.5 4.188l.625.656a.5.5 0 10.719-.688l-.938-.938.656-.656c.59-.58.59-1.545 0-2.125-.56-.57-1.555-.57-2.125 0l-.656.656-.938-.938a.5.5 0 00-.469-.156.5.5 0 00-.063 0zm1.156 2.188l1.313 1.313-3.156 3.156-1.281-1.313L4.47 2.188z" id="eyedropper"/><path d="M0 0v8h7V4H3V0H0zm4 0v3h3L4 0z" id="file"/><path d="M2 0c1 2-2 3-2 5l2 3c-.98-1.98 2-3 2-5L2 0zm3 3c1 2-2 3-2 5h3c.4 0 1-.5 1-2 0-2-2-3-2-3z" id="fire"/><path d="M0 0v8h1V0H0zm2 0v4h2v1h4L6 3.031 8 1H5V0H2z" id="flag"/><path d="M3.5 0L2 3h2l-.656 2H2l1 3 3-3H4.5L6 2H4l1-2H3.5z" id="flash"/><path d="M0 0v2h8V1H3V0H0zm0 3v4.5c0 .28.22.5.5.5h7c.28 0 .5-.22.5-.5V3H0z" id="folder"/><path d="M1.5 0A1.5 1.5 0 000 1.5a1.48 1.48 0 001 1.406v2.188c-.586.204-1 .75-1 1.406a1.5 1.5 0 003 0c0-.595-.341-1.101-.844-1.344A.484.484 0 012.5 5h2C5.323 5 6 4.323 6 3.5v-.594c.586-.204 1-.75 1-1.406a1.5 1.5 0 00-3 0 1.48 1.48 0 001 1.406V3.5c0 .277-.223.5-.5.5h-2c-.171 0-.346.04-.5.094V2.906c.586-.204 1-.75 1-1.406A1.5 1.5 0 001.5 0z" id="fork"/><path d="M0 0v4l1.5-1.5L3 4l1-1-1.5-1.5L4 0H0zm5 4L4 5l1.5 1.5L4 8h4V4L6.5 5.5 5 4z" id="fullscreen-enter"/><path d="M1 0L0 1l1.5 1.5L0 4h4V0L2.5 1.5 1 0zm3 4v4l1.5-1.5L7 8l1-1-1.5-1.5L8 4H4z" id="fullscreen-exit"/><path d="M3 0v1h4v5H3v1h5V0H3zm1 2v1H0v1h4v1l2-1.5L4 2z" id="account-login"/><path d="M7.031 0L4 3 3 2 0 5.031l1 1L3 4l1 1 4-4-.969-1zM0 7v1h8V7H0z" id="graph"/><path d="M0 0v1h1V0H0zm2 0v1h1V0H2zm2 0v1h1V0H4zm2 0v1h1V0H6zM0 2v1h1V2H0zm2 0v1h1V2H2zm2 0v1h1V2H4zm2 0v1h1V2H6zM0 4v1h1V4H0zm2 0v1h1V4H2zm2 0v1h1V4H4zm2 0v1h1V4H6zM0 6v1h1V6H0zm2 0v1h1V6H2zm2 0v1h1V6H4zm2 0v1h1V6H6z" id="grid-four-up"/><path d="M0 0v2h2V0H0zm3 0v2h2V0H3zm3 0v2h2V0H6zM0 3v2h2V3H0zm3 0v2h2V3H3zm3 0v2h2V3H6zM0 6v2h2V6H0zm3 0v2h2V6H3zm3 0v2h2V6H6z" id="grid-three-up"/><path d="M0 0v3h3V0H0zm5 0v3h3V0H5zM0 5v3h3V5H0zm5 0v3h3V5H5z" id="grid-two-up"/><path d="M.188 0A.18.18 0 000 .188v3.313c0 .28.22.5.5.5h6c.28 0 .5-.22.5-.5V.188A.18.18 0 006.812 0H.187zM0 4.906v2.906C0 7.922.077 8 .188 8h6.625a.18.18 0 00.188-.188V4.906c-.16.05-.32.094-.5.094h-6c-.18 0-.34-.044-.5-.094zM5.5 6c.28 0 .5.22.5.5s-.22.5-.5.5-.5-.22-.5-.5.22-.5.5-.5z" id="hard-drive"/><path d="M0 0v1h.5c.28 0 .5.22.5.5v4c0 .28-.22.5-.5.5H0v1h3V6h-.5c-.28 0-.5-.22-.5-.5V4h3v1.5c0 .28-.22.5-.5.5H4v1h3V6h-.5c-.28 0-.5-.22-.5-.5v-4c0-.28.22-.5.5-.5H7V0H4v1h.5c.28 0 .5.22.5.5V3H2V1.5c0-.28.22-.5.5-.5H3V0H0z" id="header"/><path d="M4 0C2.349 0 1 1.349 1 3v1H.5a.5.5 0 00-.5.5v2a.5.5 0 00.5.5h1a.5.5 0 00.5-.5V3c0-1.109.891-2 2-2s2 .891 2 2v3.5a.5.5 0 00.5.5h1a.5.5 0 00.5-.5v-2a.5.5 0 00-.5-.5H7V3c0-1.651-1.349-3-3-3z" id="headphones"/><path d="M2 1a1.95 1.95 0 00-1.406.594A1.95 1.95 0 000 3c0 .55.224 1.046.594 1.406L4 7.844l3.406-3.438C7.776 4.036 8 3.55 8 3a1.95 1.95 0 00-.594-1.406A1.95 1.95 0 006 1a1.95 1.95 0 00-1.406.594A1.95 1.95 0 004 3a1.95 1.95 0 00-.594-1.406A1.95 1.95 0 002 1z" id="heart"/><path d="M4 0L0 3h1v4h2V5h2v2h2V2.969L8 3 4 0z" id="home"/><path d="M0 0v8h8V0H0zm1 1h6v3L6 3 5 4l2 2v1H6L2 3 1 4V1z" id="image"/><path d="M.188 0A.18.18 0 000 .188v7.625c0 .11.077.188.188.188h7.625a.18.18 0 00.188-.188V.188A.18.18 0 007.813 0H.188zm.813 2h6v3h-1l-1 1h-2l-1-1h-1V2z" id="inbox"/><path d="M2 2C.69 2 0 3.01 0 4s.69 2 2 2c.79 0 1.42-.559 2-1.219C4.58 5.441 5.19 6 6 6c1.31 0 2-1.01 2-2s-.69-2-2-2c-.81 0-1.42.559-2 1.219C3.43 2.559 2.79 2 2 2zm0 1c.42 0 .884.47 1.344 1-.46.53-.924 1-1.344 1-.74 0-1-.54-1-1 0-.46.26-1 1-1zm4 0c.74 0 1 .54 1 1 0 .46-.26 1-1 1-.43 0-.894-.47-1.344-1 .45-.53.914-1 1.344-1z" id="infinity"/><path d="M5 0a1 1 0 100 2 1 1 0 000-2zM3.5 2.5C2.67 2.5 2 3.17 2 4h1c0-.28.22-.5.5-.5s.5.22.5.5-1 1.64-1 2.5C3 7.36 3.67 8 4.5 8S6 7.33 6 6.5H5c0 .28-.22.5-.5.5S4 6.78 4 6.5C4 6.14 5 4.66 5 4c0-.81-.67-1.5-1.5-1.5z" id="info"/><path d="M2 0v1h1.625l-.063.125-2 5L1.218 7H-.001v1h5V7H3.374l.063-.125 2-5L5.781 1H7V0H2z" id="italic"/><path d="M0 0v1h8V0H0zm0 2v1h8V2H0zm0 2v1h8V4H0zm1 2v1h6V6H1z" id="justify-center"/><path d="M0 0v1h8V0H0zm0 2v1h8V2H0zm0 2v1h8V4H0zm0 2v1h6V6H0z" id="justify-left"/><path d="M0 0v1h8V0H0zm0 2v1h8V2H0zm0 2v1h8V4H0zm2 2v1h6V6H2z" id="justify-right"/><path d="M5.5 0A2.5 2.5 0 003 2.5c0 .16.033.297.063.438L0 6.001v2h3v-2h2v-1l.063-.063c.14.03.277.063.438.063a2.5 2.5 0 000-5zM6 1c.55 0 1 .45 1 1s-.45 1-1 1-1-.45-1-1 .45-1 1-1z" id="key"/><path d="M1.344 0A.5.5 0 001 .5V4H0v1.5c0 .28.22.5.5.5h7c.28 0 .5-.22.5-.5V4H7V.5a.5.5 0 00-.5-.5h-5a.5.5 0 00-.094 0 .5.5 0 00-.063 0zM2 1h4v3H5v1H3V4H2V1z" transform="translate(0 1)" id="laptop"/><path d="M0 0v4h4V0H0zm5 2v3H2v1h4V2H5zm2 2v3H4v1h4V4H7z" id="layers"/><path d="M3.406 0a.5.5 0 00-.125.063l-3 1.5a.5.5 0 10.438.875l3-1.5A.5.5 0 003.406 0zm1 1.5a.5.5 0 00-.125.063l-4 2a.5.5 0 10.438.875l4-2a.5.5 0 00-.313-.938zm0 2a.5.5 0 00-.125.063l-3 1.5a.5.5 0 00.219.938h2a.502.502 0 00.156-1l1.063-.563a.5.5 0 00-.313-.938zM1.843 7a.502.502 0 00.156 1h1a.5.5 0 100-1h-1a.5.5 0 00-.094 0 .502.502 0 00-.063 0z" transform="translate(1)" id="lightbulb"/><path d="M2 0v1H1v1h2V0H2zm3.875.031c-.184.01-.354.03-.531.094-.27.095-.531.25-.75.469l-.438.438a.5.5 0 10.688.688l.438-.438c.101-.101.245-.173.375-.219.352-.126.78-.064 1.063.219.395.389.4 1.037 0 1.438l-1.5 1.5a.5.5 0 10.688.688l1.5-1.5c.78-.78.785-2.041 0-2.813a1.926 1.926 0 00-.969-.531 2.168 2.168 0 00-.563-.031zM2.281 2.937a.5.5 0 00-.188.156l-1.5 1.5a1.979 1.979 0 000 2.813 1.966 1.966 0 002.063.469c.27-.095.531-.25.75-.469l.438-.438a.5.5 0 10-.688-.688l-.438.438a1.024 1.024 0 01-.375.219c-.352.126-.78.064-1.063-.219a1.016 1.016 0 010-1.438l1.5-1.5a.5.5 0 00-.438-.844.5.5 0 00-.063 0zM5 6v2h1V7h1V6H5z" id="link-broken"/><path d="M5.875.031c-.184.01-.354.03-.531.094-.27.095-.531.25-.75.469a.5.5 0 10.688.688c.101-.101.245-.173.375-.219.352-.126.78-.064 1.063.219.395.389.4 1.037 0 1.438l-1.5 1.5c-.434.434-.799.483-1.063.469-.264-.015-.406-.125-.406-.125a.504.504 0 10-.5.875s.34.222.844.25c.504.028 1.197-.165 1.813-.781l1.5-1.5c.78-.78.785-2.041 0-2.813a1.926 1.926 0 00-.969-.531 2.168 2.168 0 00-.563-.031zm-2 2.313c-.501-.019-1.186.155-1.781.75l-1.5 1.5a1.979 1.979 0 000 2.813 1.966 1.966 0 002.063.469c.27-.095.531-.25.75-.469a.5.5 0 10-.688-.688 1.024 1.024 0 01-.375.219c-.352.126-.78.064-1.063-.219a1.016 1.016 0 010-1.438l1.5-1.5c.405-.405.752-.448 1.031-.438.279.011.469.094.469.094a.5.5 0 10.438-.875s-.343-.199-.844-.219z" id="link-intact"/><path d="M0 0v3h3V0H0zm4 0v1h4V0H4zm0 2v1h3V2H4zM0 4v3h3V4H0zm4 0v1h4V4H4zm0 2v1h3V6H4z" id="list-rich"/><path d="M.5 0a.5.5 0 100 1 .5.5 0 000-1zM2 0v1h6V0H2zM.5 2a.5.5 0 100 1 .5.5 0 000-1zM2 2v1h6V2H2zM.5 4a.5.5 0 100 1 .5.5 0 000-1zM2 4v1h6V4H2zM.5 6a.5.5 0 100 1 .5.5 0 000-1zM2 6v1h6V6H2z" id="list"/><path d="M8 0L0 4l3 1 1 3 4-8z" id="location"/><path d="M4 0C2.901 0 2 .901 2 2v1H1v4h6V3H6V2c0-1.099-.901-2-2-2zm0 1a.99.99 0 011 1v1H3V2c0-.561.439-1 1-1z" id="lock-locked"/><path d="M4 0C2.901 0 2 .901 2 2h1c0-.561.439-1 1-1a.99.99 0 011 1v2H1v4h6V4H6V2c0-1.099-.901-2-2-2z" id="lock-unlocked"/><path d="M4 1C2.349 1 1 2.349 1 4H0l1.5 2L3 4H2c0-1.109.891-2 2-2V1zm2.5 1L5 4h1c0 1.109-.891 2-2 2v1c1.651 0 3-1.349 3-3h1L6.5 2z" id="loop-circular"/><path d="M1 0v2h1V1h4v2H5l1.5 2.5L8 3H7V0H1zm.5 2.5L0 5h1v3h6V6H6v1H2V5h1L1.5 2.5z" id="loop-square"/><path d="M6 0v1H1c-.554 0-1 .446-1 1v1h1V2h5v1l2-1.5L6 0zM2 4L0 5.5 2 7V6h5c.542 0 1-.458 1-1V4H7v1H2V4z" id="loop"/><path d="M3.5 0C1.573 0 0 1.573 0 3.5S1.573 7 3.5 7a3.54 3.54 0 001.656-.406 1 1 0 00.125.125l1 1a1.016 1.016 0 101.438-1.438l-1-1a1 1 0 00-.156-.125A3.5 3.5 0 007.001 3.5c0-1.927-1.573-3.5-3.5-3.5zm0 1C4.887 1 6 2.113 6 3.5c0 .661-.241 1.273-.656 1.719l-.031.031a1 1 0 00-.125.125A2.521 2.521 0 013.5 6C2.113 6 1 4.887 1 3.5S2.113 1 3.5 1z" id="magnifying-glass"/><path d="M4 0C2.34 0 1 1.34 1 3c0 2 3 5 3 5s3-3 3-5c0-1.66-1.34-3-3-3zm0 1c1.1 0 2 .9 2 2s-.9 2-2 2-2-.9-2-2 .9-2 2-2z" id="map-marker"/><path d="M0 0v8h8V5.625a.5.5 0 000-.219V0H0zm1 1h6v4H5.5a.5.5 0 00-.094 0A.502.502 0 105.5 6H7v1H1V1zm2.5 1C2.67 2 2 2.67 2 3.5 2 4.5 3.5 6 3.5 6S5 4.5 5 3.5C5 2.67 4.33 2 3.5 2zm0 1c.28 0 .5.22.5.5s-.22.5-.5.5-.5-.22-.5-.5.22-.5.5-.5z" id="map"/><path d="M1 1v6h2V1H1zm4 0v6h2V1H5z" id="media-pause"/><path d="M1 1v6l6-3-6-3z" id="media-play"/><path d="M4 1a3 3 0 100 6 3 3 0 000-6z" id="media-record"/><path d="M4 1L0 4l4 3V1zm0 3l4 3V1L4 4z" id="media-skip-backward"/><path d="M0 1v6l4-3-4-3zm4 3v3l4-3-4-3v3z" id="media-skip-forward"/><path d="M0 1v6h2V1H0zm2 3l5 3V1L2 4z" id="media-step-backward"/><path d="M0 1v6l5-3-5-3zm5 3v3h2V1H5v3z" id="media-step-forward"/><path d="M1 1v6h6V1H1z" id="media-stop"/><path d="M2 0v2H0v4h2v2h4V6h2V2H6V0H2z" id="medical-cross"/><path d="M0 1v1h8V1H0zm0 2.969v1h8v-1H0zm0 3v1h8v-1H0z" id="menu"/><path d="M2.906-.031A1 1 0 002.781 0 1 1 0 002 1v2a1 1 0 102 0V1A1 1 0 002.906-.031zM.343 2a.5.5 0 00-.344.5V3c0 1.476 1.091 2.693 2.5 2.938v1.063h-.5c-.55 0-1 .45-1 1h4c0-.55-.45-1-1-1h-.5V5.938c1.409-.244 2.5-1.461 2.5-2.938v-.5a.5.5 0 10-1 0V3c0 1.109-.891 2-2 2s-2-.891-2-2v-.5A.5.5 0 00.405 2a.5.5 0 00-.063 0z" transform="translate(1)" id="microphone"/><path d="M0 3v2h8V3H0z" id="minus"/><path d="M.344 0A.5.5 0 000 .5v5a.5.5 0 00.5.5H3v1H2c-.55 0-1 .45-1 1h6c0-.55-.45-1-1-1H5V6h2.5a.5.5 0 00.5-.5v-5a.5.5 0 00-.5-.5h-7a.5.5 0 00-.094 0 .5.5 0 00-.063 0zM1 1h6v4H1V1z" id="monitor"/><path d="M2.719 0A3.988 3.988 0 000 3.781c0 2.21 1.79 4 4 4 1.76 0 3.251-1.17 3.781-2.75-.4.14-.831.25-1.281.25-2.21 0-4-1.79-4-4C2.5.841 2.579.4 2.719 0z" id="moon"/><path d="M3.5 0L2 1.5h1V3H1.5V2L0 3.5 1.5 5V4H3v1.5H2L3.5 7 5 5.5H4V4h1.5v1L7 3.5 5.5 2v1H4V1.5h1L3.5 0z" id="move"/><path d="M8 0C3 0 2 1 2 1v4.094A1.535 1.535 0 001.5 5 1.5 1.5 0 103 6.5V2.531c.732-.226 1.99-.438 4-.5v2.063A1.535 1.535 0 006.5 4 1.5 1.5 0 108 5.5V0z" id="musical-note"/><path d="M5 0a1.96 1.96 0 00-1.406.594L.813 3.313a2.74 2.74 0 003.875 3.875l1.25-1.25-.688-.688-.906.875L4 6.5c-.69.69-1.81.69-2.5 0-.682-.682-.668-1.778 0-2.469l2.781-2.719v-.031a1.016 1.016 0 011.438 0c.388.381.378 1.006 0 1.406l-2.5 2.469a.282.282 0 01-.375 0 .282.282 0 010-.375l.375-.344.594-.625-.688-.688-.875.875-.094.094a1.234 1.234 0 000 1.75 1.234 1.234 0 001.75 0l2.5-2.438c.78-.78.785-2.041 0-2.813A1.983 1.983 0 005-.002z" id="paperclip"/><path d="M6 0L5 1l2 2 1-1-2-2zM4 2L0 6v2h2l4-4-2-2z" id="pencil"/><path d="M5.5 0c-.51 0-.949.355-1.219.875C4.731 1.415 5 2.15 5 3c0 .29-.034.574-.094.844.18.11.374.156.594.156C6.33 4 7 3.1 7 2s-.67-2-1.5-2zm-3 1C1.672 1 1 1.895 1 3s.672 2 1.5 2S4 4.105 4 3s-.672-2-1.5-2zm4.75 3.156c-.43.51-1.018.824-1.688.844.27.38.438.844.438 1.344V7h2V5.344c0-.52-.31-.968-.75-1.188zm-6.5 1c-.44.22-.75.668-.75 1.188V8h5V6.344c0-.52-.31-.968-.75-1.188C3.81 5.686 3.19 6 2.5 6S1.19 5.686.75 5.156z" id="people"/><path d="M4 0C2.895 0 2 1.119 2 2.5S2.895 5 4 5s2-1.119 2-2.5S5.105 0 4 0zM1.906 5C.836 5.04 0 5.92 0 7v1h8V7c0-1.08-.836-1.96-1.906-2C5.554 5.61 4.81 6 4 6c-.81 0-1.554-.39-2.094-1z" id="person"/><path d="M1.188 0A.18.18 0 001 .188v7.625c0 .11.077.188.188.188h4.625a.18.18 0 00.188-.188V.188A.18.18 0 005.813 0H1.188zm.813 1h3v5h-3V1zm1.5 5.5c.28 0 .5.22.5.5s-.22.5-.5.5-.5-.22-.5-.5.22-.5.5-.5z" id="phone"/><path d="M3.5 0c-.97 0-1.839.391-2.469 1.031L4 4V.031C3.84.001 3.67 0 3.5 0zM5 1.063v3.406L2.281 7.188c.6.5 1.369.813 2.219.813 1.93 0 3.5-1.57 3.5-3.5 0-1.76-1.31-3.197-3-3.438zM.906 2.376A2.968 2.968 0 000 4.501c0 .95.435 1.804 1.125 2.344L3.281 4.72.906 2.376z" id="pie-chart"/><path d="M1.344 0A.502.502 0 001.5 1H2v2H1c-.55 0-1 .45-1 1h3v3l.438 1 .563-1V4h3c0-.55-.45-1-1-1h-1V1h.5a.5.5 0 100-1h-4a.5.5 0 00-.094 0 .502.502 0 00-.063 0z" id="pin"/><path d="M4 0C1.79 0 0 1.79 0 4s1.79 4 4 4 4-1.79 4-4-1.79-4-4-4zM3 2l3 2-3 2V2z" id="play-circle"/><path d="M3 0v3H0v2h3v3h2V5h3V3H5V0H3z" id="plus"/><path d="M3 0v4h1V0H3zM1.719 1.438l-.375.313A3.53 3.53 0 000 4.501c0 1.929 1.571 3.5 3.5 3.5S7 6.43 7 4.501c0-1.116-.529-2.11-1.344-2.75l-.375-.313-.625.781.375.313c.585.46.969 1.165.969 1.969 0 1.391-1.109 2.5-2.5 2.5S1 5.892 1 4.501c0-.804.361-1.509.938-1.969l.406-.313-.625-.781z" id="power-standby"/><path d="M2 0v2h4V0H2zM.094 3C.034 3 0 3.034 0 3.094v2.813c0 .06.034.094.094.094H1v-2h6v2h.906c.06 0 .094-.034.094-.094V3.094C8 3.034 7.966 3 7.906 3H.093zM2 5v3h4V5H2z" id="print"/><path d="M0 0v7h1V0H0zm7 0v7h1V0H7zM2 1v1h2V1H2zm1 2v1h2V3H3zm1 2v1h2V5H4z" id="project"/><path d="M3.25 0l-.469 1.531L2 4.094l-.031-.063-.094-.344H0v1h1.156l.375 1.156L2 7.312l.469-1.469.781-2.5.781 2.5.406 1.313.531-1.281.594-1.469.125.281H8v-1H6.312l-.375-.719-.5-1-.406 1.031-.469 1.188-.844-2.656L3.249 0z" id="pulse"/><path d="M3 0c-.28 0-.539.101-.719.281C2.101.461 2 .72 2 1c0 .28.181.479.281.719.03.06.063.161.063.281H0v6h2.344a.989.989 0 00-.031-.281C2.203 7.479 2 7.28 2 7c0-.28.101-.539.281-.719C2.461 6.101 2.72 6 3 6c.28 0 .539.101.719.281.18.18.281.439.281.719 0 .28-.181.479-.281.719A.648.648 0 003.656 8H6V5.656c.12 0 .221.011.281.031.24.11.439.313.719.313.28 0 .539-.101.719-.281C7.899 5.539 8 5.28 8 5c0-.28-.101-.539-.281-.719A1.011 1.011 0 007 4c-.28 0-.479.181-.719.281A.648.648 0 016 4.344V2H3.656c0-.12.011-.221.031-.281C3.797 1.479 4 1.28 4 1c0-.28-.101-.539-.281-.719A1.011 1.011 0 003 0z" id="puzzle-piece"/><path d="M4.469 0c-.854 0-1.48.256-1.875.656s-.54.901-.594 1.281l1 .125c.036-.26.125-.497.313-.688.188-.19.491-.375 1.156-.375.664 0 1.019.163 1.219.344a.846.846 0 01.281.656c0 .833-.313 1.063-.813 1.5-.5.438-1.188 1.083-1.188 2.25v.25h1v-.25c0-.833.344-1.063.844-1.5.5-.438 1.156-1.083 1.156-2.25 0-.479-.168-1.02-.594-1.406-.426-.387-1.071-.594-1.906-.594zm-.5 7v1h1V7h-1z" id="question-mark"/><path d="M4.5 0C3.29 0 2.23.86 2 2 .9 2 0 2.9 0 4c0 .52.201 1.015.531 1.375C.791 5.155 1.13 5 1.5 5c.2 0 .393.055.563.125C2.233 4.485 2.811 4 3.501 4s1.268.485 1.438 1.125c.17-.07.362-.125.563-.125.63 0 1.155.388 1.375.938A1.501 1.501 0 008.002 4.5c0-.65-.42-1.29-1-1.5v-.5a2.5 2.5 0 00-2.5-2.5zM3.344 5A.5.5 0 003 5.5v2a.5.5 0 101 0v-2a.5.5 0 00-.594-.5.5.5 0 00-.063 0zm-2 1A.5.5 0 001 6.5v1a.5.5 0 101 0v-1a.5.5 0 00-.594-.5.5.5 0 00-.063 0zm4 0A.5.5 0 005 6.5v1a.5.5 0 101 0v-1a.5.5 0 00-.594-.5.5.5 0 00-.063 0z" id="rain"/><path d="M6 0v1h-.5c-.354 0-.6.116-.813.375l-1.406 1.75-1.5-1.75v-.031C1.569 1.108 1.354 1 1 1H0v1h1.031v.031l1.625 1.906-1.625 2.031v.031H0v1h1c.354 0 .6-.116.813-.375l1.531-1.906 1.625 1.906v.031c.212.236.427.344.781.344H6v1l2-1.5-2-1.5v1h-.281v-.031l-1.75-2.063 1.5-1.875v-.031H6v1l2-1.5-2-1.5z" id="random"/><path d="M4 0C1.799 0 0 1.799 0 4s1.799 4 4 4a3.928 3.928 0 002.813-1.188l-.688-.688A2.957 2.957 0 014 6.999c-1.659 0-3-1.341-3-3s1.341-3 3-3c.834 0 1.545.354 2.094.906L5 2.999h3v-3L6.812 1.187C6.081.467 5.093-.001 3.999-.001z" id="reload"/><path d="M4 0l1.656 1.656-4 4L0 4v4h4L2.344 6.344l4-4L8 4V0H4z" id="resize-both"/><path d="M3.5 0L1 3h2v2H1l2.5 3L6 5H4V3h2L3.5 0z" id="resize-height"/><path d="M3 1L0 3.5 3 6V4h2v2l3-2.5L5 1v2H3V1z" id="resize-width"/><path d="M0 0v2c3.331 0 6 2.669 6 6h2c0-4.409-3.591-8-8-8zm0 3v2c1.67 0 3 1.33 3 3h2c0-2.75-2.25-5-5-5zm0 3v2h2c0-1.11-.89-2-2-2z" id="rss-alt"/><path d="M1 0v1c3.32 0 6 2.68 6 6h1c0-3.86-3.14-7-7-7zm0 2v1c2.221 0 4 1.779 4 4h1c0-2.759-2.241-5-5-5zm0 2v1c1.109 0 2 .891 2 2h1c0-1.651-1.349-3-3-3zm0 2a1 1 0 100 2 1 1 0 000-2z" id="rss"/><path d="M3 0c-.55 0-1 .45-1 1v5.5c0 .28-.22.5-.5.5S1 6.78 1 6.5V5H0v2c0 .55.45 1 1 1h5c.55 0 1-.45 1-1V4H3V1.5c0-.28.22-.5.5-.5s.5.22.5.5V3h4V1c0-.55-.45-1-1-1H3z" id="script"/><path d="M.75 0A.766.766 0 000 .75v5.5c0 .402.348.75.75.75h4.5c.402 0 .75-.348.75-.75V5H5v1H1V1h2V0H.75zM6 0v1C3.95 1 2.296 2.544 2.062 4.531A2.002 2.002 0 014 3h2v1l2-2-2-2z" id="share-boxed"/><path d="M5 0v2C1 2 0 4.05 0 7c.52-1.98 2-3 4-3h1v2l3-3.156L5 0z" id="share"/><path d="M4 0l-.188.094-3.5 1.469-.313.125v.313c0 1.657.666 3.122 1.469 4.188.401.533.828.969 1.25 1.281.422.313.826.531 1.281.531.455 0 .86-.219 1.281-.531.422-.313.849-.749 1.25-1.281.803-1.065 1.469-2.53 1.469-4.188v-.313l-.313-.125-3.5-1.469L3.998 0zm0 1.094V7c-.045 0-.328-.069-.656-.313s-.714-.631-1.063-1.094a6.247 6.247 0 01-1.219-3.281L4 1.093z" id="shield"/><path d="M6 0v8h1V0H6zM4 1v7h1V1H4zM2 3v5h1V3H2zM0 5v3h1V5H0z" id="signal"/><path d="M3 0v1H1L0 2l1 1h2v5h1V4h2l1-1-1-1H4V0H3z" id="signpost"/><path d="M2 0v6H0l2.5 2L5 6H3V0H2zm2 0v1h2V0H4zm0 2v1h3V2H4zm0 2v1h4V4H4z" id="sort-ascending"/><path d="M2 0v6H0l2.5 2L5 6H3V0H2zm2 0v1h4V0H4zm0 2v1h3V2H4zm0 2v1h2V4H4z" id="sort-descending"/><path d="M.75 0A.766.766 0 000 .75v5.5c0 .402.348.75.75.75h6.5c.402 0 .75-.348.75-.75V.75A.766.766 0 007.25 0H.75zM1 1h1v1H1V1zm2 0h4v1H3V1zM1 3h1v1H1V3zm2 0h4v1H3V3zM1 5h1v1H1V5zm2 0h4v1H3V5z" id="spreadsheet"/><path d="M4 0L3 3H0l2.5 2-1 3L4 6l2.5 2-1-3L8 3H5L4 0z" id="star"/><path d="M4 0a.5.5 0 100 1 .5.5 0 000-1zM1.5 1a.5.5 0 100 1 .5.5 0 000-1zm5 0a.5.5 0 100 1 .5.5 0 000-1zM4 2a2 2 0 10-.001 3.999A2 2 0 004 2zM.5 3.5a.5.5 0 100 1 .5.5 0 000-1zm7 0a.5.5 0 100 1 .5.5 0 000-1zM1.5 6a.5.5 0 100 1 .5.5 0 000-1zm5 0a.5.5 0 100 1 .5.5 0 000-1zM4 7a.5.5 0 100 1 .5.5 0 000-1z" id="sun"/><path d="M.344 0A.358.358 0 000 .344v7.313c0 .18.164.344.344.344h6.313c.18 0 .344-.164.344-.344V.344A.358.358 0 006.657 0H.344zM1 1h5v5H1V1zm2.5 5.5c.28 0 .5.22.5.5s-.22.5-.5.5S3 7.28 3 7s.22-.5.5-.5z" id="tablet"/><path d="M0 0v3l5 5 3-3-5-5H0zm2 1c.55 0 1 .45 1 1s-.45 1-1 1-1-.45-1-1 .45-1 1-1z" id="tag"/><path d="M0 1v2l3 3 1.5-1.5L5 4 3 2 2 1H0zm3.406 0l3 3-1.188 1.219.781.781 2-2-3-3H3.405zM1.5 2c.28 0 .5.22.5.5s-.22.5-.5.5-.5-.22-.5-.5.22-.5.5-.5z" id="tags"/><path d="M4 0C1.797 0 0 1.797 0 4c0 2.203 1.797 4 4 4 2.203 0 4-1.797 4-4 0-2.203-1.797-4-4-4zm0 1c1.663 0 3 1.337 3 3S5.663 7 4 7 1 5.663 1 4s1.337-3 3-3zm0 1c-1.099 0-2 .901-2 2s.901 2 2 2 2-.901 2-2-.901-2-2-2zm0 1c.558 0 1 .442 1 1s-.442 1-1 1-1-.442-1-1 .442-1 1-1z" id="target"/><path d="M0 0v7h7V3.406l-1 1V6H1V1h3.594l1-1H0zm7 0L4 3 3 2 2 3l2 2 4-4-1-1z" id="task"/><path d="M.094 0C.034 0 0 .034 0 .094v7.813c0 .06.034.094.094.094h7.813c.06 0 .094-.034.094-.094V.094c0-.06-.034-.094-.094-.094H.094zM1.5.781L3.219 2.5 1.5 4.219.781 3.5l1-1-1-1L1.5.781zM4 3h3v1H4V3z" id="terminal"/><path d="M0 0v2h.5c0-.55.45-1 1-1H3v5.5c0 .28-.22.5-.5.5H2v1h4V7h-.5c-.28 0-.5-.22-.5-.5V1h1.5c.55 0 1 .45 1 1H8V0H0z" id="text"/><path d="M0 0v4h1V0H0zm2 0v4.001c.28 0 .529.101.719.281.18.19 1.151 2.115 1.281 2.375.13.26.386.393.656.313.26-.08.393-.355.313-.625-.08-.26-.469-1.594-.469-1.844s.22-.5.5-.5h1.5c.28 0 .5-.22.5-.5L5.969.313A.52.52 0 005.5 0H2z" id="thumb-down"/><path d="M4.438 0c-.19.021-.34.149-.438.344-.13.26-1.101 2.185-1.281 2.375C2.529 2.899 2.28 3 2 3v4.001h3.5a.52.52 0 00.469-.313S7 3.78 7 3.5c0-.28-.22-.5-.5-.5H5c-.28 0-.5-.25-.5-.5S4.889.926 4.969.656c.08-.27-.053-.545-.313-.625L4.437 0zM0 3v4h1V3H0z" id="thumb-up"/><path d="M2 0v1h1v.031A3.504 3.504 0 000 4.5C0 6.429 1.571 8 3.5 8S7 6.429 7 4.5c0-.45-.086-.874-.219-1.25l-.938.344c.107.304.156.596.156.906 0 1.391-1.109 2.5-2.5 2.5s-2.5-1.109-2.5-2.5S2.108 2 3.499 2c.298 0 .585.051.875.156l.344-.938c-.221-.081-.471-.119-.719-.156V.999h1v-1h-3zm5 1.125s-3.675 2.8-3.875 3c-.2.2-.2.519 0 .719.2.2.519.2.719 0C4.044 4.654 7 1.125 7 1.125z" id="timer"/><path d="M6 0v1H0v1h6v1l2-1.5L6 0zM2 4L0 5.5 2 7V6h6V5H2V4z" id="transfer"/><path d="M3 0c-.55 0-1 .45-1 1H1c-.55 0-1 .45-1 1h7c0-.55-.45-1-1-1H5c0-.55-.45-1-1-1H3zM1 3v4.813c0 .11.077.188.188.188h4.625a.18.18 0 00.188-.188V3h-1v3.5c0 .28-.22.5-.5.5s-.5-.22-.5-.5V3h-1v3.5c0 .28-.22.5-.5.5s-.5-.22-.5-.5V3h-1z" id="trash"/><path d="M1 0v4c0 1.1 1.12 2 2.5 2H4c1.1 0 2-.9 2-2V0H5v4c0 .55-.45 1-1 1s-1-.45-1-1V0H1zM0 7v1h7V7H0z" id="underline"/><path d="M.094 0C.034 0 0 .034 0 .094v4.813c0 .06.034.094.094.094h1.813c.06 0 .094-.034.094-.094V.094c0-.06-.034-.094-.094-.094H.094zm6 0C6.034 0 6 .034 6 .094v4.813c0 .06.034.094.094.094h1.813c.06 0 .094-.034.094-.094V.094c0-.06-.034-.094-.094-.094H6.094zm-3 2C3.034 2 3 2.034 3 2.094v2.813c0 .06.034.094.094.094h1.813c.06 0 .094-.034.094-.094V2.094c0-.06-.034-.094-.094-.094H3.094zM0 6v1h8V6H0z" id="vertical-align-bottom"/><path d="M.094 0C.034 0 0 .034 0 .094V2h2V.094C2 .034 1.966 0 1.906 0H.093zm6 0C6.034 0 6 .034 6 .094V2h2V.094C8 .034 7.966 0 7.906 0H6.093zm-3 1C3.034 1 3 1.034 3 1.094V2h2v-.906C5 1.034 4.966 1 4.906 1H3.093zM0 3v1h8V3H0zm0 2v1.906C0 6.966.034 7 .094 7h1.813c.06 0 .094-.034.094-.094V5h-2zm3 0v.906c0 .06.034.094.094.094h1.813c.06 0 .094-.034.094-.094V5h-2zm3 0v1.906c0 .06.034.094.094.094h1.813c.06 0 .094-.034.094-.094V5h-2z" id="vertical-align-center"/><path d="M0 0v1h8V0H0zm.094 2C.034 2 0 2.034 0 2.094v4.813c0 .06.034.094.094.094h1.813c.06 0 .094-.034.094-.094V2.094c0-.06-.034-.094-.094-.094H.094zm3 0C3.034 2 3 2.034 3 2.094v2.813c0 .06.034.094.094.094h1.813c.06 0 .094-.034.094-.094V2.094c0-.06-.034-.094-.094-.094H3.094zm3 0C6.034 2 6 2.034 6 2.094v4.813c0 .06.034.094.094.094h1.813c.06 0 .094-.034.094-.094V2.094c0-.06-.034-.094-.094-.094H6.094z" id="vertical-align-top"/><path d="M.5 1c-.28 0-.5.22-.5.5v4c0 .28.22.5.5.5h5c.28 0 .5-.22.5-.5V4l1 1h1V2H7L6 3V1.5c0-.28-.22-.5-.5-.5h-5z" id="video"/><path d="M3.344 0L2 2H0v4h2l1.344 2H4V0h-.656zM5 1v1c.152 0 .313.026.469.063H5.5c.86.215 1.5.995 1.5 1.938a1.99 1.99 0 01-2 2.001v1a2.988 2.988 0 003-3 2.988 2.988 0 00-3-3zm0 2v2l.25-.031C5.683 4.851 6 4.462 6 4c0-.446-.325-.819-.75-.938v-.031h-.031L5 3z" id="volume-high"/><path d="M4.344 0L3 2H1v4h2l1.344 2H5V0h-.656zM6 3v2l.25-.031C6.683 4.851 7 4.462 7 4c0-.446-.325-.819-.75-.938v-.031h-.031L6 3z" id="volume-low"/><path d="M5.344 0L4 2H2v4h2l1.344 2H6V0h-.656z" id="volume-off"/><path d="M3.094 0c-.06 0-.105.044-.125.094L.031 6.907 0 7.095v.813c0 .06.034.094.094.094h6.813c.06 0 .094-.034.094-.094v-.813l-.031-.188L4.032.094C4.012.044 3.967 0 3.907 0h-.813zM3 3h1v2H3V3zm0 3h1v1H3V6z" id="warning"/><path d="M3.75 0C2.376 0 1.09.372 0 1.063l.531.875A5.99 5.99 0 013.75 1c1.2 0 2.323.31 3.25.906l.531-.813A6.98 6.98 0 003.75-.001zm.031 3a3.99 3.99 0 00-2.156.625l.531.844A2.983 2.983 0 013.781 4c.593 0 1.13.177 1.594.469l.531-.844A3.967 3.967 0 003.781 3zM3.75 6a1 1 0 100 2 1 1 0 000-2z" id="wifi"/><path d="M5.5 0A2.5 2.5 0 003 2.5c0 .32.078.626.188.906L.282 6.281a.991.991 0 000 1.406c.2.2.459.313.719.313.26 0 .519-.091.719-.281l2.875-2.875c.28.1.586.156.906.156a2.5 2.5 0 002.5-2.5c0-.16-.032-.297-.063-.438L7 3H5V1l.938-.938C5.798.032 5.661 0 5.5-.001zM1 6.5c.28 0 .5.22.5.5s-.22.5-.5.5S.5 7.28.5 7s.22-.5.5-.5z" id="wrench"/><path d="M1.406 0L0 1.406l.688.719 1.781 1.781L.688 5.687 0 6.406l1.406 1.406.719-.688 1.781-1.781 1.781 1.781.719.688 1.406-1.406-.688-.719-1.781-1.781 1.781-1.781.688-.719L6.406 0l-.719.688-1.781 1.781L2.125.688 1.406 0z" id="x"/><path d="M0 0l2.25 3H0v1h3v1H0v1h3v2h1V6h3V5H4V4h3V3H4.75L7 0H6L3.687 3h-.375L.999 0h-1z" id="yen"/><path d="M3.5 0C1.573 0 0 1.573 0 3.5S1.573 7 3.5 7a3.54 3.54 0 001.656-.406 1 1 0 00.094.094l1.031 1.031a1.016 1.016 0 101.438-1.438L6.688 5.25a1 1 0 00-.125-.094A3.5 3.5 0 007.001 3.5c0-1.927-1.573-3.5-3.5-3.5zm0 1C4.887 1 6 2.113 6 3.5a2.53 2.53 0 01-.531 1.563l-.031.031a1 1 0 00-.063.031 1 1 0 00-.281.281 1 1 0 00-.063.063A2.492 2.492 0 011 3.5C1 2.113 2.113 1 3.5 1zM3 2v1H2v1h1v1h1V4h1V3H4V2H3z" id="zoom-in"/><path d="M3.5 0C1.573 0 0 1.573 0 3.5S1.573 7 3.5 7a3.54 3.54 0 001.656-.406 1 1 0 00.094.094l1.031 1.031a1.016 1.016 0 101.438-1.438L6.688 5.25a1 1 0 00-.125-.094A3.5 3.5 0 007.001 3.5c0-1.927-1.573-3.5-3.5-3.5zm0 1C4.887 1 6 2.113 6 3.5a2.53 2.53 0 01-.531 1.563l-.031.031a1 1 0 00-.063.031 1 1 0 00-.281.281 1 1 0 00-.063.063A2.492 2.492 0 011 3.5C1 2.113 2.113 1 3.5 1zM2 3v1h3V3H2z" id="zoom-out"/></defs></svg>